# xmcd
#
# Track frame offsets: 
#        150
#        28279
#        55715
#        76356
#        97886
#        118663
#        150372
#        178515
#        197600
#        218760
#        242638
#        269793
#
# Disc length: 3884 seconds
#
# Revision: 0
# Processed by: cddbd v1.5.2PL0 Copyright (c) Steve Scherf et al.
# Submitted via: ExactAudioCopy v0.95b4
#
DISCID=9c0f2a0c
DTITLE=Various Artist - Gold Collection - Blues
DYEAR=2000
DGENRE=Blues
TTITLE0=Byther Smith - Play the blues in Paris
TTITLE1=Son Seals - Now that i'm down
TTITLE2=Otis Rush - You got me running
TTITLE3=Koko Taylor - Mother Nature
TTITLE4=Luther Allison - Nobody but you
TTITLE5=Albert Collins - Lights are on but home
TTITLE6=Tinsley Ellis - Early in the morning
TTITLE7=Clarence Brown - Better off with the blues
TTITLE8=Ronnie Earl - Through floods storms
TTITLE9=Koko Tailor - I cried like a baby
TTITLE10=Luther Allison - Just memories
TTITLE11=Duke Robillard - Glamour girl
EXTD=
EXTT0=
EXTT1=
EXTT2=
EXTT3=
EXTT4=
EXTT5=
EXTT6=
EXTT7=
EXTT8=
EXTT9=
EXTT10=
EXTT11=
PLAYORDER=
